<svg width="326" height="331" viewBox="0 0 326 331" fill="none" xmlns="http://www.w3.org/2000/svg">
<path d="M169.771 312.875C209.366 311.729 228.574 304.108 256.771 276.375H244.271V226.375C221.256 260.749 205.474 272.587 169.771 274.375V254.375L107.271 291.875L169.771 330.875V312.875Z" fill="#FFFCFC"/>
<path d="M75.774 121.875H36.774C36.774 -40.6251 291.274 -40.625 291.274 121.875H250.774C250.774 12.8749 75.774 13.3749 75.774 121.875Z" fill="white"/>
<path d="M75.774 141.375V270.875H36.7741C-11.0686 245.234 -13.4332 164.035 36.774 141.375H75.774Z" fill="white"/>
<path d="M250.774 270.875V141.375H291.274C335.271 165.375 338.271 240.875 291.274 270.875H250.774Z" fill="white"/>
<path d="M123.771 136.875V227.375C125.699 230.563 127.305 231.41 130.771 231.875L212.771 184.875C215.136 181.544 214.91 179.7 212.771 176.375L130.771 131.875C126.904 132.133 125.326 133.122 123.771 136.875Z" fill="#FFFCFC"/>
</svg>
